<svg width="41" height="40" viewBox="0 0 41 40" fill="none" xmlns="http://www.w3.org/2000/svg">
<circle cx="20.5" cy="20" r="20" fill="white" fill-opacity="0.3"/>
<path d="M11 20C11 15.522 11 13.282 12.391 11.891C13.782 10.5 16.021 10.5 20.5 10.5C24.978 10.5 27.218 10.5 28.609 11.891C30 13.282 30 15.521 30 20C30 24.478 30 26.718 28.609 28.109C27.218 29.5 24.979 29.5 20.5 29.5C16.022 29.5 13.782 29.5 12.391 28.109C11 26.718 11 24.479 11 20Z" stroke="white" stroke-width="1.5" stroke-linecap="round" stroke-linejoin="round"/>
<path d="M26.008 14.5H25.998M25 20C25 21.1935 24.5259 22.3381 23.682 23.182C22.8381 24.0259 21.6935 24.5 20.5 24.5C19.3065 24.5 18.1619 24.0259 17.318 23.182C16.4741 22.3381 16 21.1935 16 20C16 18.8065 16.4741 17.6619 17.318 16.818C18.1619 15.9741 19.3065 15.5 20.5 15.5C21.6935 15.5 22.8381 15.9741 23.682 16.818C24.5259 17.6619 25 18.8065 25 20Z" stroke="white" stroke-width="1.5" stroke-linecap="round" stroke-linejoin="round"/>
</svg>
