<svg width="231" height="44" viewBox="0 0 231 44" fill="none" xmlns="http://www.w3.org/2000/svg">
<g clip-path="url(#clip0_354_140)">
<path d="M6.85585 0.0317688C6.83218 0.0556831 6.54028 0.127426 6.19315 0.199165C5.54622 0.326702 5.34899 0.390469 4.73362 0.653511C3.20308 1.32307 1.97235 2.36728 1.04929 3.79409C0.820501 4.15279 0.631157 4.47163 0.631157 4.49554C0.631157 4.51945 0.544374 4.7267 0.441813 4.95786C-0.0315478 6.01003 9.53444e-06 4.77452 9.53444e-06 21.9999C9.53444e-06 37.7426 9.52842e-06 37.7586 0.165686 38.2687C0.733719 40.0463 1.99601 41.7042 3.49499 42.6687C3.99202 42.9876 4.91507 43.4419 5.06497 43.4419C5.12808 43.4419 5.20698 43.4738 5.25431 43.5057C5.29376 43.5455 5.60933 43.6412 5.95646 43.7129C6.3036 43.7847 6.71384 43.8803 6.86374 43.9281C7.04519 43.976 12.2285 43.9999 21.5774 43.976C37.4744 43.9521 36.362 43.9839 37.8925 43.4579C38.5947 43.2108 39.4941 42.7405 39.999 42.3419C40.3067 42.1028 41.3796 41.0267 41.5926 40.7557C42.4131 39.6716 42.9338 38.3723 43.1547 36.8499C43.2573 36.1006 43.2652 7.668 43.1547 6.93467C42.989 5.79481 42.3579 4.25641 41.6479 3.30786C41.285 2.81366 40.3225 1.87307 39.8018 1.49047C39.3363 1.15569 38.3028 0.621628 37.79 0.454235C37.5927 0.382496 37.1983 0.286842 36.9221 0.239017C36.6381 0.18322 36.3304 0.111481 36.2279 0.0716248C36.0464 -0.000114441 6.92685 -0.0319977 6.85585 0.0317688ZM21.6957 10.3941C21.6957 10.4499 21.6405 10.5455 21.5695 10.6093C21.4985 10.6651 21.0646 11.1593 20.607 11.7093C20.1415 12.2673 19.6681 12.8173 19.5577 12.9528C18.5321 14.1086 15.2264 18.0702 15.2264 18.1339C15.2264 18.1818 15.3053 18.3013 15.4079 18.4129C15.613 18.6441 18.4374 21.9999 18.8713 22.5339C19.1632 22.8847 19.5814 23.3868 20.2362 24.1521C21.5537 25.6984 21.7825 25.9934 21.7352 26.0651C21.6799 26.1528 18.4926 26.1847 18.2717 26.097C18.2007 26.0731 17.5144 25.3397 16.7491 24.4789C15.9759 23.618 15.1476 22.7013 14.9109 22.4383C14.6663 22.1752 14.1693 21.6173 13.7985 21.2028C12.7571 20.039 11.5027 18.6361 11.3054 18.4129C11.2029 18.3013 11.124 18.1738 11.124 18.126C11.124 18.0702 11.6289 17.4803 12.2443 16.8028C14.1219 14.7463 14.8714 13.9252 14.9503 13.8296C14.9977 13.7818 15.258 13.4948 15.542 13.1919C16.6386 11.9963 17.7431 10.7926 17.9483 10.5376L18.1613 10.2825H19.9285C21.3801 10.2825 21.6957 10.2984 21.6957 10.3941ZM25.7508 18.2774C25.9717 18.5086 26.311 18.8752 26.5082 19.0984C26.7054 19.3137 28.0703 20.8122 29.5456 22.4383C31.0209 24.0564 32.2832 25.4593 32.3621 25.539C32.441 25.6267 32.5041 25.7223 32.5041 25.7542C32.5041 25.8021 31.8887 26.5274 31.6363 26.7825C31.6126 26.8064 31.2813 27.181 30.8868 27.6194C30.5002 28.0579 29.9874 28.6318 29.7428 28.8948C29.5062 29.1579 29.1669 29.5405 28.9934 29.7318C28.8198 29.931 28.1965 30.6245 27.6127 31.2781C27.0289 31.9318 26.3583 32.681 26.1295 32.9521C25.8928 33.2151 25.6404 33.5021 25.5694 33.5818C25.4431 33.7093 25.2617 33.7252 23.6759 33.7252C22.7055 33.7252 21.8929 33.7013 21.8693 33.6774C21.8456 33.6615 21.8851 33.5738 21.9482 33.5021C22.1927 33.2071 23.3209 31.8521 23.5892 31.5252C23.739 31.3419 24.1335 30.8716 24.457 30.489C24.7804 30.1064 25.1749 29.6361 25.3248 29.4528C25.4747 29.2615 25.7824 28.9028 25.9954 28.6477C27.3287 27.0694 27.8415 26.4557 28.1176 26.1289L28.4174 25.7463L27.7626 24.9651C26.4609 23.4108 24.4175 20.9955 24.2124 20.7644C23.4393 19.8955 21.9324 18.0383 21.9324 17.9506C21.9324 17.8789 22.3269 17.855 23.6444 17.855H25.3485L25.7508 18.2774Z" fill="url(#paint0_linear_354_140)"/>
<path d="M102.798 9.21438C102.601 9.27018 102.348 9.318 102.23 9.318C102.112 9.32598 101.938 9.35786 101.836 9.39771C101.733 9.43757 101.496 9.50931 101.299 9.56511C100.676 9.74047 99.2874 10.3941 99.0902 10.6013C99.0665 10.6252 98.9245 10.7368 98.7746 10.8405C98.3407 11.1354 97.6464 11.8687 97.2677 12.4347C96.8891 12.9847 96.5656 13.6303 96.5656 13.8216C96.5656 13.8854 96.534 13.9651 96.4867 13.989C96.4473 14.0129 96.4078 14.1166 96.4078 14.2042C96.4078 14.2999 96.3762 14.4832 96.3368 14.6187C96.2185 15.0093 96.0686 16.181 96.0765 16.6593C96.0765 17.0339 96.1396 17.4245 96.3841 18.676C96.4078 18.7955 96.4551 18.9151 96.4946 18.939C96.534 18.9629 96.5656 19.0347 96.5656 19.0905C96.5656 19.2499 97.0863 20.055 97.4255 20.4376C97.7332 20.7724 98.3486 21.2586 98.8298 21.5296C99.5241 21.9361 100.85 22.5579 101.023 22.5579C101.078 22.5579 101.157 22.5897 101.181 22.6376C101.205 22.6774 101.299 22.7173 101.386 22.7173C101.465 22.7173 101.599 22.7492 101.678 22.789C101.749 22.8289 102.238 22.9963 102.759 23.1557C103.279 23.3151 103.769 23.4745 103.84 23.5224C103.918 23.5622 104.068 23.5941 104.171 23.5941C104.281 23.5941 104.392 23.626 104.415 23.6738C104.439 23.7216 104.534 23.7535 104.621 23.7535C104.7 23.7535 104.834 23.7854 104.913 23.8253C104.984 23.8651 105.291 24.0166 105.583 24.16C106.277 24.4948 106.585 24.8535 106.585 25.3238C106.585 25.6028 106.538 25.7064 106.325 25.9216C105.946 26.3042 105.504 26.4079 104.439 26.3521C103.343 26.3042 102.782 26.2325 102.68 26.1368C102.64 26.097 102.538 26.0651 102.451 26.0651C102.285 26.0651 101.82 25.9296 101.599 25.818C101.52 25.7781 101.402 25.7463 101.339 25.7463C101.276 25.7463 101.157 25.7144 101.078 25.6745C101.007 25.6347 100.857 25.5709 100.747 25.5231C100.636 25.4832 100.423 25.3876 100.258 25.3158C100.1 25.2441 99.9343 25.1883 99.887 25.1883C99.8397 25.1883 99.8002 25.1484 99.8002 25.1086C99.8002 25.0608 99.7529 25.0289 99.6898 25.0289C99.5872 25.0289 99.2085 24.8376 98.3407 24.3513C98.1277 24.2318 97.9147 24.1042 97.8673 24.0644C97.8279 24.0245 97.7727 23.9926 97.7411 23.9926C97.678 23.9926 96.5656 26.2484 96.5656 26.376C96.5656 26.4238 96.534 26.4637 96.4867 26.4637C96.4473 26.4637 96.4078 26.5035 96.4078 26.5593C96.4078 26.6151 96.1396 27.205 95.8082 27.8745C95.1928 29.1021 95.1455 29.3093 95.4611 29.389C95.5479 29.4129 95.6189 29.4608 95.6189 29.5006C95.6189 29.5405 95.6899 29.5724 95.7767 29.5724C95.8634 29.5724 95.9344 29.6042 95.9344 29.6521C95.9344 29.6919 95.9818 29.7318 96.0449 29.7318C96.108 29.7318 96.2895 29.8035 96.463 29.8832C97.0784 30.1941 97.678 30.4492 97.7884 30.4492C97.8437 30.4492 97.9226 30.481 97.9462 30.5289C97.9699 30.5687 98.0803 30.6086 98.1829 30.6086C98.2855 30.6086 98.3959 30.6405 98.4196 30.6883C98.4433 30.7281 98.5537 30.768 98.6563 30.768C98.7588 30.768 98.8693 30.7999 98.8929 30.8477C98.9166 30.8876 99.0271 30.9274 99.1375 30.9274C99.2401 30.9274 99.39 30.9593 99.4689 30.9992C99.5793 31.0629 100.21 31.2144 101.654 31.5253C102.696 31.7564 105.339 31.8281 106.427 31.6687C107.492 31.5013 108.881 31.1347 108.936 30.9912C108.952 30.9593 109.015 30.9274 109.07 30.9274C109.425 30.9274 110.916 29.9151 111.366 29.3651C111.54 29.1658 111.713 28.9586 111.753 28.9028C111.973 28.6397 112.542 27.5318 112.613 27.2209C112.81 26.3999 112.841 26.0412 112.841 24.7499C112.841 23.0202 112.755 22.5419 112.257 21.5934C112.029 21.1629 111.24 20.2622 110.806 19.9274C110.467 19.6724 109.977 19.3695 109.899 19.3695C109.859 19.3695 109.82 19.3296 109.82 19.2897C109.82 19.2419 109.749 19.21 109.662 19.21C109.575 19.21 109.504 19.1702 109.504 19.1303C109.504 19.0825 109.433 19.0506 109.354 19.0506C109.267 19.0506 109.173 19.0108 109.149 18.9709C109.125 18.9231 109.031 18.8912 108.944 18.8912C108.865 18.8912 108.794 18.8513 108.794 18.8115C108.794 18.7637 108.723 18.7318 108.644 18.7318C108.557 18.7318 108.463 18.6919 108.439 18.6521C108.415 18.6042 108.336 18.5724 108.273 18.5724C108.21 18.5724 107.981 18.4847 107.753 18.3731C107.532 18.2615 107.295 18.1738 107.24 18.1738C107.185 18.1738 107.074 18.1419 106.995 18.1021C106.924 18.0622 106.703 17.9905 106.506 17.9347C106.309 17.8789 106.088 17.8071 106.017 17.7673C105.938 17.7274 105.804 17.6955 105.717 17.6955C105.63 17.6955 105.496 17.6637 105.417 17.6238C105.346 17.5839 105.141 17.5122 104.968 17.4564C104.494 17.3129 103.563 16.9781 103.414 16.8905C103.335 16.8506 103.216 16.8187 103.153 16.8187C103.09 16.8187 103.035 16.7789 103.035 16.739C103.035 16.6912 102.988 16.6593 102.924 16.6593C102.861 16.6593 102.68 16.5079 102.53 16.3245C102.285 16.0376 102.246 15.9419 102.246 15.5832C102.246 14.9137 102.601 14.6187 103.627 14.4354C103.926 14.3876 104.226 14.3796 104.455 14.4274C104.652 14.4673 104.976 14.4992 105.181 14.5071C105.386 14.5071 105.575 14.539 105.599 14.5868C105.623 14.6267 105.725 14.6666 105.812 14.6666C106.159 14.6666 107.224 15.081 108.557 15.7347C108.968 15.9339 109.417 16.1731 109.551 16.2608C109.859 16.46 109.843 16.476 110.451 15.2883C110.695 14.7941 111.224 13.7499 111.626 12.9687C112.021 12.1876 112.344 11.526 112.344 11.4941C112.344 11.4463 111.674 11.1115 111.2 10.9202C111.114 10.8883 110.885 10.7926 110.688 10.705C110.49 10.6173 110.104 10.4419 109.82 10.3224C109.536 10.2028 109.244 10.0753 109.173 10.0354C109.094 9.99554 108.944 9.96366 108.834 9.96366C108.723 9.96366 108.636 9.9238 108.636 9.88395C108.636 9.83612 108.534 9.80424 108.407 9.80424C108.273 9.80424 108.155 9.77235 108.131 9.7325C108.108 9.69264 107.974 9.64482 107.832 9.6209C107.69 9.59699 107.413 9.54119 107.216 9.49337C105.765 9.14264 103.54 9.00713 102.798 9.21438Z" fill="white"/>
<path d="M57.9078 9.33398C57.5844 9.36586 57.1425 9.4376 56.9216 9.48543C56.7086 9.53325 56.4088 9.59702 56.2668 9.62094C56.1248 9.64485 55.9907 9.69268 55.967 9.73253C55.9434 9.77239 55.8408 9.80427 55.7382 9.80427C55.6357 9.80427 55.5252 9.83615 55.5016 9.88398C55.4779 9.92384 55.3911 9.96369 55.3201 9.96369C54.9888 9.96369 53.1979 10.976 52.3458 11.6535C52.0697 11.8688 50.839 13.1043 50.6259 13.3833C50.2867 13.8137 49.6398 14.8021 49.5372 15.0412C49.4741 15.1847 49.4031 15.3043 49.3715 15.3043C49.3321 15.3043 49.3084 15.3521 49.3084 15.4159C49.3084 15.4796 49.2374 15.663 49.1585 15.8383C49.0717 16.0057 48.9534 16.2688 48.8903 16.4202C48.8272 16.5717 48.7404 16.8028 48.6852 16.9224C48.6378 17.042 48.5984 17.2333 48.5984 17.3369C48.5984 17.4405 48.5668 17.5441 48.5274 17.568C48.4879 17.592 48.4406 17.7514 48.409 17.9108C48.2118 19.2659 48.1724 19.6804 48.1724 20.4854C48.1724 21.2905 48.2118 21.705 48.409 23.0601C48.4406 23.2195 48.4879 23.3789 48.5274 23.4028C48.5668 23.4267 48.5984 23.5224 48.5984 23.618C48.5984 23.8572 48.9061 24.6702 49.3321 25.5869C49.7897 26.5514 50.5944 27.6753 51.4386 28.5441C52.046 29.1659 53.1427 30.0506 53.3083 30.0506C53.3557 30.0506 53.4109 30.0825 53.4267 30.1224C53.4582 30.218 54.4996 30.768 54.6416 30.768C54.7047 30.768 54.7521 30.7999 54.7521 30.8477C54.7521 30.8876 54.8231 30.9275 54.902 30.9275C54.9888 30.9275 55.0834 30.9593 55.1071 31.0072C55.1308 31.047 55.2333 31.0869 55.3359 31.0869C55.4306 31.0869 55.541 31.1188 55.5805 31.1506C55.6751 31.2304 56.2274 31.4057 56.7244 31.5014C58.4048 31.8441 60.4087 31.8282 61.7736 31.4695C62.0971 31.3818 62.46 31.2941 62.5862 31.2702C62.7045 31.2463 62.8229 31.1985 62.8465 31.1586C62.8702 31.1188 62.957 31.0869 63.0438 31.0869C63.1227 31.0869 63.2647 31.047 63.3515 31.0072C63.4382 30.9593 63.5803 30.8876 63.667 30.8477C63.7538 30.8079 63.88 30.768 63.9432 30.768C64.0063 30.768 64.0615 30.7282 64.0615 30.6883C64.0615 30.6405 64.1562 30.6086 64.2824 30.6166C64.4402 30.6246 64.598 30.7362 64.8899 31.0869C65.1108 31.342 65.3554 31.5731 65.4421 31.605C65.5289 31.6289 66.7754 31.6369 68.2192 31.6289L70.8384 31.605L70.4282 31.1586C70.1994 30.9115 69.7339 30.3934 69.3868 30.0028C69.0397 29.6202 68.5269 29.0543 68.2429 28.7514C67.9588 28.4485 67.6985 28.1535 67.6669 28.0898C67.6117 27.9941 67.8957 27.4999 68.093 27.3405C68.1955 27.2608 69.0002 25.9376 69.1659 25.5869C69.6393 24.5586 69.8286 24.0325 70.1363 22.813C70.4045 21.7209 70.3809 19.6325 70.0732 18.0941C70.0022 17.7434 69.7339 16.8746 69.584 16.5159C69.5367 16.4202 69.4736 16.2608 69.4341 16.1572C69.1896 15.5115 68.4322 14.1246 68.235 13.9492C68.2113 13.9253 68.0772 13.742 67.9352 13.5267C67.588 13.0166 66.4993 11.9006 65.9155 11.4702C65.6551 11.2789 65.4264 11.1035 65.4027 11.0796C65.379 11.0557 65.2844 10.992 65.1897 10.9362C65.0871 10.8883 64.9293 10.7927 64.8347 10.7369C64.7321 10.6891 64.6374 10.6253 64.6138 10.6014C64.5506 10.5296 63.4067 9.9876 63.1148 9.88398C62.9649 9.82818 62.7677 9.75644 62.6809 9.72456C62.5152 9.65282 62.3101 9.60499 61.6553 9.47746C60.5034 9.26224 59.107 9.20644 57.9078 9.33398ZM60.393 14.6267C60.5665 14.6506 60.7953 14.7144 60.9058 14.7622C61.0162 14.8101 61.1898 14.8898 61.3002 14.9376C62.3022 15.376 63.1542 16.2608 63.7065 17.4166C63.8248 17.6796 63.9589 17.9586 63.9984 18.0304C64.0299 18.1101 64.0615 18.2615 64.0615 18.3651C64.0615 18.4767 64.0931 18.5804 64.1325 18.6043C64.243 18.676 64.3297 19.505 64.3297 20.4854C64.3297 21.2985 64.2903 21.6253 64.1009 22.518C64.0142 22.9166 63.7223 23.5144 63.6197 23.5144C63.5724 23.5144 63.2647 23.2434 62.9491 22.9166L62.3811 22.3188H59.6592H56.9374L57.4423 22.8608C58.0735 23.5463 59.2806 24.8775 59.6908 25.3477C59.8565 25.547 60.0695 25.7782 60.1642 25.8738C60.2588 25.9615 60.3614 26.1209 60.393 26.2086C60.4403 26.368 60.4166 26.384 60.1011 26.392C59.1149 26.4159 58.0183 26.368 57.9552 26.3043C57.9078 26.2564 57.7974 26.2246 57.7027 26.2246C57.3556 26.2246 56.1722 25.4992 55.7304 25.013C55.2491 24.4949 54.6969 23.5463 54.5233 22.9564C54.4681 22.7572 54.3892 22.5101 54.3576 22.3985C54.1052 21.6093 54.113 18.7637 54.3655 18.6043C54.4049 18.5804 54.4365 18.4767 54.4365 18.3651C54.4365 18.2615 54.4681 18.1101 54.5075 18.0304C54.547 17.9586 54.6416 17.7354 54.7205 17.5362C55.1544 16.484 56.1248 15.4398 57.0794 14.9934C57.3003 14.8898 57.537 14.7782 57.608 14.7383C57.6869 14.6985 57.8447 14.6666 57.963 14.6586C58.0893 14.6586 58.2549 14.6267 58.3417 14.5869C58.5074 14.5072 59.8565 14.5391 60.393 14.6267Z" fill="white"/>
<path d="M79.572 9.65275C79.501 9.81217 79.4457 10.0114 79.4457 10.1071C79.4457 10.1948 79.4142 10.2984 79.3668 10.3223C79.3274 10.3462 79.2879 10.4419 79.2879 10.5296C79.2879 10.6093 79.2564 10.7448 79.2169 10.8245C79.1775 10.8962 79.0986 11.1194 79.0513 11.3187C78.9408 11.7172 78.6016 12.7854 78.499 13.0325C78.4674 13.1201 78.3964 13.3513 78.3412 13.5506C78.286 13.7498 78.215 13.981 78.1834 14.0687C78.1519 14.1564 78.0809 14.3875 78.0256 14.5868C77.9704 14.7861 77.8994 15.0172 77.8679 15.1049C77.8363 15.1926 77.6785 15.6948 77.5128 16.2209C77.355 16.7469 77.1894 17.2412 77.1499 17.3129C77.1105 17.3926 77.0789 17.5281 77.0789 17.6078C77.0789 17.6955 77.0474 17.7912 77 17.8151C76.9606 17.839 76.9211 17.9506 76.9211 18.0622C76.9211 18.1658 76.8896 18.3172 76.8501 18.3969C76.8107 18.4687 76.6135 19.0665 76.4083 19.7281C76.2032 20.3817 76.006 20.9955 75.9744 21.0832C75.9429 21.1709 75.8719 21.402 75.8166 21.6013C75.7614 21.8006 75.6904 22.0317 75.6588 22.1194C75.6273 22.2071 75.43 22.8129 75.2249 23.4745C75.0198 24.1281 74.8226 24.7419 74.791 24.8296C74.7595 24.9172 74.6885 25.1484 74.6332 25.3477C74.578 25.5469 74.507 25.7781 74.4754 25.8658C74.4439 25.9535 74.2861 26.4556 74.1204 26.9817C73.9626 27.5078 73.797 28.01 73.7654 28.0977C73.7338 28.1854 73.6628 28.4165 73.6076 28.6158C73.5524 28.8151 73.4814 29.0462 73.4498 29.1339C73.3552 29.3969 72.6609 31.5571 72.6609 31.6049C72.6609 31.6288 74.01 31.6448 75.6588 31.6448C77.9941 31.6448 78.6647 31.6209 78.6883 31.5491C78.7041 31.4933 78.8225 31.1027 78.9487 30.6883C79.0828 30.2738 79.2327 29.7716 79.28 29.5723C79.3353 29.373 79.4142 29.1498 79.4536 29.0781C79.4931 28.9984 79.5246 28.8469 79.5246 28.7433C79.5246 28.6317 79.5641 28.5201 79.6035 28.4962C79.6508 28.4723 79.6824 28.3448 79.6824 28.2172C79.6824 28.0897 79.7219 27.9622 79.7613 27.9383C79.8086 27.9143 79.8402 27.8107 79.8402 27.7151C79.8402 27.6114 79.8954 27.452 79.9664 27.3564L80.0848 27.181H82.9486C85.6231 27.181 85.8203 27.189 85.9387 27.3245C86.0175 27.4042 86.0728 27.5477 86.0728 27.6433C86.0728 27.731 86.1122 27.8346 86.1517 27.8585C86.199 27.8825 86.2306 27.9941 86.2306 28.1056C86.2306 28.2093 86.2621 28.3607 86.3016 28.4404C86.3647 28.56 86.8459 30.0825 87.0432 30.768C87.0826 30.9194 87.1457 31.1107 87.1852 31.1825C87.2246 31.2622 87.2562 31.3977 87.2562 31.4854C87.2562 31.6448 87.3035 31.6448 90.2541 31.6448C93.1653 31.6448 93.2521 31.6368 93.2521 31.4933C93.2521 31.4056 93.2205 31.31 93.1732 31.2861C93.1337 31.2622 93.0943 31.1346 93.0943 31.0071C93.0943 30.8796 93.0627 30.752 93.0154 30.7281C92.976 30.7042 92.9365 30.6006 92.9365 30.4969C92.9365 30.4013 92.9049 30.2897 92.8734 30.2419C92.8418 30.202 92.7472 29.9549 92.6683 29.6919C92.5894 29.4288 92.4947 29.1498 92.4553 29.0781C92.4158 28.9984 92.3842 28.8469 92.3842 28.7354C92.3842 28.6238 92.3527 28.5361 92.3054 28.5361C92.2659 28.5361 92.2265 28.4325 92.2265 28.3049C92.2265 28.1694 92.1949 28.0419 92.1476 28.018C92.1081 27.9941 92.0687 27.8665 92.0687 27.731C92.0687 27.6035 92.0371 27.4998 91.9898 27.4998C91.9503 27.4998 91.9109 27.4122 91.9109 27.3006C91.9109 27.189 91.8793 27.0375 91.8399 26.9578C91.8004 26.8861 91.6742 26.5194 91.5559 26.1448C91.4454 25.7701 91.3113 25.4035 91.2719 25.3317C91.2324 25.252 91.2008 25.1006 91.2008 24.9969C91.2008 24.8854 91.1693 24.7738 91.122 24.7498C91.0825 24.7259 91.0431 24.5984 91.0431 24.4629C91.0431 24.3354 91.0115 24.2317 90.9642 24.2317C90.9247 24.2317 90.8853 24.1281 90.8853 24.0006C90.8853 23.8651 90.8537 23.7375 90.8064 23.7136C90.7669 23.6897 90.7275 23.5622 90.7275 23.4267C90.7275 23.2991 90.6959 23.1955 90.6486 23.1955C90.6091 23.1955 90.5697 23.0919 90.5697 22.9723C90.5697 22.8527 90.5381 22.7172 90.5066 22.6694C90.475 22.6296 90.3804 22.3825 90.3015 22.1194C90.2226 21.8564 90.1279 21.5774 90.0884 21.5056C90.049 21.4259 90.0174 21.2904 90.0174 21.2107C90.0174 21.123 89.9859 21.0274 89.9386 21.0035C89.8991 20.9796 89.8597 20.852 89.8597 20.7245C89.8597 20.5969 89.8281 20.4694 89.7808 20.4455C89.7413 20.4216 89.7019 20.31 89.7019 20.2064C89.7019 20.1027 89.6703 19.9912 89.623 19.9672C89.5835 19.9433 89.5441 19.8317 89.5441 19.7201C89.5441 19.6165 89.5125 19.4651 89.4731 19.3854C89.4336 19.3136 89.339 19.0346 89.2601 18.7716C89.1812 18.5085 89.0865 18.2614 89.0549 18.2136C89.0234 18.1738 88.9918 18.0622 88.9918 17.9665C88.9918 17.8629 88.9603 17.7593 88.9129 17.7354C88.8735 17.7114 88.834 17.5839 88.834 17.4564C88.834 17.3288 88.8025 17.2013 88.7552 17.1774C88.7157 17.1535 88.6763 17.0419 88.6763 16.9383C88.6763 16.8346 88.6447 16.723 88.5974 16.6991C88.5579 16.6752 88.5185 16.5636 88.5185 16.452C88.5185 16.3484 88.4869 16.1969 88.4475 16.1172C88.408 16.0455 88.2739 15.6549 88.1556 15.2643C88.0372 14.8658 87.911 14.5151 87.8715 14.4752C87.84 14.4274 87.8084 14.2998 87.8084 14.1803C87.8084 14.0607 87.7769 13.9332 87.7295 13.9093C87.6901 13.8854 87.6506 13.7738 87.6506 13.6701C87.6506 13.5665 87.6191 13.4549 87.5717 13.431C87.5323 13.4071 87.4929 13.2955 87.4929 13.1839C87.4929 13.0803 87.4613 12.9288 87.4219 12.8491C87.3824 12.7774 87.1852 12.1716 86.98 11.518C86.7749 10.8564 86.5777 10.2585 86.5382 10.1868C86.4988 10.1071 86.4672 9.96362 86.4672 9.86796C86.4672 9.76434 86.412 9.62086 86.3568 9.54115C86.2542 9.41361 86.0018 9.39767 82.9723 9.38173L79.6982 9.36579L79.572 9.65275ZM83.1774 15.7585C83.2011 15.9259 83.2799 16.2607 83.351 16.4998C83.5245 17.0817 83.635 17.5122 83.6823 17.8788C83.706 18.0383 83.7533 18.1977 83.7928 18.2216C83.8322 18.2455 83.8638 18.381 83.8638 18.5325C83.8638 18.6839 83.8953 18.8194 83.9348 18.8433C83.9742 18.8672 84.0215 19.0267 84.0452 19.1861C84.0689 19.3535 84.1241 19.6484 84.1793 19.8477C84.2267 20.0469 84.2977 20.3498 84.3292 20.5252C84.3687 20.7006 84.4397 20.9477 84.4791 21.0832C84.5265 21.2107 84.6054 21.4817 84.6527 21.681C84.7 21.8803 84.771 22.1433 84.8105 22.2788C84.9604 22.7969 84.9919 23.2752 84.8815 23.2752C83.1774 23.2991 81.0078 23.2752 80.9447 23.2354C80.85 23.1716 80.8421 22.9006 80.9368 22.8448C80.9763 22.8209 81.0236 22.6854 81.0473 22.5419C81.063 22.3984 81.1419 22.0636 81.2208 21.8006C81.2997 21.5375 81.3707 21.2346 81.3944 21.123C81.4102 21.0114 81.4575 20.852 81.497 20.7643C81.5364 20.6767 81.5837 20.4933 81.6153 20.3658C81.639 20.2303 81.6942 19.9991 81.7336 19.8477C81.7731 19.6962 81.8283 19.4571 81.852 19.3296C81.8835 19.194 81.9309 19.0187 81.9703 18.931C82.0098 18.8433 82.0571 18.66 82.0729 18.5325C82.1044 18.3252 82.2701 17.6955 82.6094 16.4998C82.6567 16.3484 82.7198 16.0854 82.7514 15.9259C82.8224 15.5991 82.9802 15.36 83.0748 15.4238C83.1064 15.4477 83.1537 15.5991 83.1774 15.7585Z" fill="white"/>
<path d="M133.819 9.40565L130.955 9.4455L130.963 13.3991C130.963 17.0738 130.955 17.3687 130.829 17.5281L130.687 17.6955L127.058 17.6796L123.429 17.6556L123.405 13.5267L123.389 9.40565L120.431 9.42159L117.472 9.4455V20.5252V31.6049L120.431 31.6288L123.389 31.6448L123.405 27.2846L123.429 22.9165L127.089 22.8926C129.764 22.8767 130.774 22.9006 130.861 22.9643C130.947 23.0441 130.963 23.7774 130.963 27.3325L130.955 31.6049L133.874 31.6288L136.801 31.6448V20.5332C136.801 14.4194 136.778 9.40565 136.746 9.3897C136.707 9.37376 135.397 9.38173 133.819 9.40565Z" fill="white"/>
<path d="M144.454 9.40564L142.205 9.44549V20.5252V31.6049H145.164H148.122L148.146 26.1607C148.154 23.1716 148.193 20.7245 148.225 20.7245C148.264 20.7245 148.462 20.9477 148.683 21.2107C148.896 21.4817 149.164 21.8085 149.274 21.952C149.385 22.0875 149.874 22.7013 150.363 23.3151C150.844 23.9288 151.286 24.4868 151.341 24.5506C151.397 24.6143 151.649 24.9411 151.909 25.268C152.17 25.5948 152.422 25.9216 152.477 25.9853C152.533 26.0491 152.84 26.4477 153.172 26.8622C153.503 27.2767 153.905 27.7788 154.063 27.9701C154.221 28.1614 154.41 28.4006 154.473 28.4882C154.536 28.5839 154.631 28.7035 154.686 28.7593C154.742 28.823 154.892 28.9984 155.01 29.1578C155.128 29.3252 155.239 29.4687 155.262 29.4926C155.286 29.5165 155.452 29.7078 155.617 29.931C155.791 30.1462 155.972 30.3694 156.012 30.4172C156.059 30.4651 156.185 30.6245 156.304 30.7759C156.414 30.9274 156.603 31.1506 156.714 31.2861C156.824 31.4136 156.919 31.5491 156.919 31.589C156.919 31.6209 157.984 31.6368 159.286 31.6288L161.653 31.6049V20.5252V9.44549L158.694 9.42158L155.736 9.40564L155.72 15.0013C155.704 18.6361 155.673 20.5969 155.617 20.6209C155.578 20.6288 155.452 20.5172 155.349 20.3658C155.247 20.2143 155.105 20.023 155.034 19.9353C154.955 19.8477 154.686 19.5049 154.426 19.1701C154.174 18.8274 153.787 18.3332 153.566 18.0622C153.353 17.7911 153.085 17.4484 152.974 17.2969C152.864 17.1535 152.675 16.9064 152.556 16.7469C152.43 16.5875 152.233 16.3404 152.122 16.189C152.004 16.0455 151.752 15.7187 151.554 15.4636C151.152 14.9535 151.152 14.9535 149.685 13.0643C149.085 12.2911 148.509 11.5419 148.399 11.3984C148.288 11.2549 148.162 11.0955 148.122 11.0477C148.075 10.9998 147.862 10.7288 147.649 10.4419C147.428 10.1629 147.192 9.85999 147.121 9.7723C147.042 9.68462 146.978 9.59694 146.978 9.57303C146.978 9.39767 146.529 9.36578 144.454 9.40564Z" fill="white"/>
<path d="M175.262 9.42154C174.599 9.54908 173.7 9.78024 173.408 9.8998C173.297 9.94763 173.14 10.0114 173.053 10.0433C172.256 10.3462 171.017 11.0715 170.244 11.6933C170.015 11.8766 168.753 13.144 168.595 13.3513C167.933 14.2281 167.073 15.7266 166.781 16.5397C166.749 16.6273 166.678 16.8027 166.631 16.9223C166.584 17.0418 166.544 17.2331 166.544 17.3368C166.544 17.4404 166.513 17.552 166.465 17.5759C166.426 17.5998 166.386 17.7433 166.386 17.8947C166.386 18.0462 166.355 18.1817 166.315 18.2056C166.284 18.2295 166.228 18.4926 166.205 18.7875C166.181 19.0904 166.118 19.5766 166.079 19.8875C166.008 20.4215 166.015 20.6128 166.228 22.1592C166.591 24.9013 168.09 27.5955 170.181 29.3013C170.741 29.7476 171.869 30.4969 172.264 30.6802C172.398 30.736 172.564 30.8157 172.635 30.8556C172.714 30.8955 172.832 30.9273 172.895 30.9273C172.958 30.9273 173.013 30.9592 173.013 31.007C173.013 31.0469 173.084 31.0868 173.171 31.0868C173.258 31.0868 173.392 31.1186 173.471 31.1585C173.597 31.2302 174.142 31.3897 174.788 31.557C175.956 31.852 178.276 31.8281 179.798 31.4933C180.256 31.3976 180.8 31.2223 180.871 31.1426C180.903 31.1107 181.013 31.0868 181.116 31.0868C181.218 31.0868 181.297 31.0469 181.297 31.007C181.297 30.9592 181.368 30.9273 181.447 30.9273C181.534 30.9273 181.628 30.8955 181.652 30.8476C181.676 30.8078 181.771 30.7679 181.857 30.7679C181.936 30.7679 182.007 30.7281 182.007 30.6882C182.007 30.6404 182.078 30.6085 182.165 30.6085C182.252 30.6085 182.323 30.5686 182.323 30.5288C182.323 30.481 182.362 30.4491 182.41 30.4491C182.544 30.4491 183.806 29.6042 184.295 29.1817C184.808 28.7513 185.171 28.3846 185.597 27.8585C185.77 27.6513 185.96 27.4281 186.015 27.3723C186.062 27.3165 186.11 27.2368 186.11 27.1889C186.11 27.1411 186.141 27.1013 186.173 27.1013C186.212 27.1013 186.291 27.0056 186.354 26.8781C186.417 26.7585 186.488 26.6469 186.512 26.623C186.63 26.5194 187.175 25.4831 187.372 24.9889C187.419 24.8773 187.482 24.7099 187.53 24.6063C187.995 23.5063 188.263 22.0237 188.263 20.565C188.263 19.5926 188.09 18.1339 187.924 17.7353C187.893 17.6476 187.798 17.3766 187.735 17.1375C187.664 16.8984 187.569 16.6194 187.53 16.5157C187.482 16.4201 187.419 16.2607 187.38 16.157C187.206 15.7107 186.914 15.1368 186.607 14.6426C186.417 14.3476 186.267 14.0846 186.267 14.0686C186.267 14.0447 186.22 13.965 186.157 13.8933C186.094 13.8136 185.834 13.4788 185.573 13.152C185.092 12.5382 184.366 11.8447 183.735 11.3824C183.546 11.2389 183.372 11.1034 183.348 11.0795C183.198 10.9201 181.628 10.115 181.021 9.88386C180.776 9.78821 179.743 9.51719 179.325 9.43748C178.875 9.3498 175.688 9.33386 175.262 9.42154ZM177.897 14.5947C178.52 14.6984 179.017 14.8259 179.128 14.9215C179.167 14.9534 179.246 14.9853 179.301 14.9853C179.632 14.9853 181.139 16.2926 181.139 16.5795C181.139 16.6273 181.179 16.6592 181.218 16.6592C181.266 16.6592 181.297 16.715 181.297 16.7788C181.297 16.8426 181.321 16.8984 181.36 16.8984C181.423 16.8984 181.613 17.2889 181.613 17.4324C181.613 17.4882 181.644 17.536 181.676 17.536C181.771 17.536 182.07 18.5244 182.236 19.3534C182.433 20.3418 182.283 21.8563 181.881 22.9723C181.36 24.407 180.524 25.4433 179.475 25.9534C178.638 26.3679 178.362 26.4237 177.155 26.4157C175.98 26.4078 175.696 26.344 174.828 25.9215C174.386 25.7063 173.25 24.6781 173.25 24.4947C173.25 24.4389 173.218 24.3911 173.187 24.3911C173.155 24.3911 172.99 24.1121 172.824 23.7694C172.658 23.4346 172.493 23.0918 172.453 23.0201C172.414 22.9404 172.382 22.7969 172.382 22.6933C172.382 22.5897 172.351 22.4781 172.311 22.4382C172.059 22.1672 172.059 18.7636 172.311 18.6042C172.351 18.5802 172.382 18.4607 172.382 18.3411C172.382 18.2215 172.414 18.094 172.445 18.0542C172.477 18.0063 172.556 17.831 172.611 17.6556C172.777 17.1614 173.337 16.3404 173.85 15.8382C174.102 15.5911 174.347 15.3839 174.386 15.3839C174.426 15.3839 174.52 15.336 174.583 15.2723C174.796 15.081 175.301 14.8259 175.459 14.8259C175.538 14.8259 175.633 14.786 175.656 14.7462C175.68 14.6984 175.853 14.6665 176.035 14.6585C176.216 14.6585 176.437 14.6266 176.524 14.5868C176.745 14.4911 177.281 14.4911 177.897 14.5947Z" fill="white"/>
<path d="M189.605 9.42965C189.581 9.46951 189.597 9.5811 189.644 9.66879C189.762 9.9398 189.96 10.4499 190.062 10.8007C190.117 10.976 190.196 11.1514 190.228 11.1912C190.259 11.2391 190.291 11.3507 190.291 11.4463C190.291 11.5499 190.33 11.6536 190.37 11.6775C190.417 11.7014 190.449 11.813 190.449 11.9166C190.449 12.0202 190.488 12.1318 190.528 12.1557C190.575 12.1797 190.607 12.2912 190.607 12.3949C190.607 12.4985 190.646 12.6101 190.685 12.634C190.733 12.6579 190.764 12.7615 190.764 12.8652C190.764 12.9608 190.788 13.0724 190.82 13.1043C190.875 13.1521 190.993 13.463 191.206 14.1086C191.269 14.3079 191.356 14.5311 191.396 14.6028C191.443 14.6826 191.474 14.8181 191.474 14.8978C191.474 14.9855 191.514 15.0811 191.553 15.105C191.601 15.1289 191.632 15.2246 191.632 15.3123C191.632 15.392 191.664 15.5275 191.703 15.6072C191.743 15.6789 191.853 15.9739 191.948 16.2608C192.042 16.5478 192.24 17.1217 192.39 17.5362C192.539 17.9507 192.658 18.3572 192.658 18.4289C192.658 18.5086 192.697 18.5724 192.737 18.5724C192.784 18.5724 192.816 18.6441 192.816 18.7318C192.816 18.8195 192.847 18.955 192.887 19.0347C192.926 19.1065 193.013 19.3456 193.084 19.5688C193.257 20.1507 193.407 20.5572 193.47 20.613C193.502 20.6449 193.526 20.7565 193.526 20.8521C193.526 20.9557 193.565 21.0594 193.605 21.0833C193.652 21.1072 193.683 21.2188 193.683 21.3224C193.683 21.426 193.723 21.5376 193.762 21.5615C193.81 21.5855 193.841 21.697 193.841 21.8007C193.841 21.9043 193.881 22.0159 193.92 22.0398C193.967 22.0637 193.999 22.1594 193.999 22.247C193.999 22.3268 194.031 22.4623 194.078 22.542C194.117 22.6137 194.204 22.8369 194.267 23.0362C194.48 23.6818 194.599 23.9927 194.654 24.0405C194.685 24.0724 194.709 24.184 194.709 24.2797C194.709 24.3833 194.748 24.4869 194.788 24.5108C194.835 24.5347 194.867 24.6463 194.867 24.7499C194.867 24.8536 194.906 24.9652 194.946 24.9891C194.993 25.013 195.025 25.1246 195.025 25.2282C195.025 25.3318 195.064 25.4434 195.103 25.4673C195.151 25.4912 195.182 25.5949 195.182 25.6985C195.182 25.7941 195.206 25.9057 195.238 25.9297C195.285 25.9855 195.451 26.4318 195.766 27.3804C195.837 27.5956 195.932 27.8427 195.971 27.9144C196.019 27.9941 196.05 28.1297 196.05 28.2094C196.05 28.297 196.09 28.3927 196.129 28.4166C196.176 28.4405 196.208 28.5521 196.208 28.6557C196.208 28.7594 196.247 28.871 196.287 28.8949C196.334 28.9188 196.366 29.0304 196.366 29.134C196.366 29.2376 196.405 29.3492 196.445 29.3731C196.492 29.397 196.524 29.5086 196.524 29.6123C196.524 29.7159 196.555 29.8195 196.595 29.8434C196.634 29.8673 196.681 29.971 196.705 30.0666C196.729 30.1702 196.815 30.4492 196.91 30.6883C197.005 30.9275 197.076 31.1905 197.076 31.2623C197.076 31.342 197.115 31.4057 197.155 31.4057C197.202 31.4057 197.226 31.4536 197.218 31.5014C197.186 31.6449 202.961 31.6927 203.119 31.5572C203.182 31.5094 203.23 31.3818 203.23 31.2782C203.23 31.1826 203.269 31.071 203.308 31.047C203.356 31.0231 203.387 30.9275 203.387 30.8398C203.387 30.7601 203.419 30.6246 203.466 30.5449C203.506 30.4731 203.632 30.1224 203.742 29.7717C203.861 29.421 203.987 29.0702 204.026 28.9985C204.066 28.9188 204.097 28.7912 204.097 28.7115C204.097 28.6318 204.129 28.5362 204.16 28.4883C204.2 28.4485 204.31 28.1456 204.405 27.8188C204.508 27.492 204.618 27.1572 204.657 27.0855C204.697 27.0057 204.728 26.8702 204.728 26.7905C204.728 26.7028 204.76 26.6152 204.8 26.5912C204.839 26.5673 204.886 26.4637 204.91 26.3681C204.926 26.2644 205.06 25.8818 205.194 25.5072C205.328 25.1326 205.439 24.7659 205.439 24.6862C205.439 24.6144 205.478 24.5507 205.517 24.5507C205.565 24.5507 205.596 24.4789 205.596 24.3912C205.596 24.3036 205.628 24.1681 205.667 24.0883C205.707 24.0166 205.833 23.6499 205.951 23.2753C206.07 22.9007 206.196 22.5659 206.235 22.526C206.275 22.4782 206.306 22.3666 206.306 22.271C206.306 22.1673 206.346 22.0637 206.385 22.0398C206.433 22.0159 206.464 21.9043 206.464 21.8007C206.464 21.697 206.504 21.5855 206.543 21.5615C206.59 21.5376 206.622 21.426 206.622 21.3224C206.622 21.2188 206.661 21.1072 206.701 21.0833C206.748 21.0594 206.78 20.9478 206.78 20.8441C206.78 20.7405 206.819 20.6289 206.859 20.605C206.906 20.5811 206.938 20.4775 206.938 20.3739C206.938 20.2782 206.969 20.1666 207.001 20.1268C207.04 20.0789 207.166 19.7202 207.293 19.3297C207.411 18.9311 207.545 18.5804 207.584 18.5326C207.616 18.4927 207.648 18.3811 207.648 18.2855C207.648 18.1818 207.687 18.0782 207.726 18.0543C207.774 18.0304 207.805 17.9188 207.805 17.8152C207.805 17.7115 207.845 17.5999 207.884 17.576C207.932 17.5521 207.963 17.4405 207.963 17.3369C207.963 17.2333 208.003 17.1217 208.042 17.0978C208.089 17.0739 208.121 16.9782 208.121 16.8905C208.121 16.8108 208.152 16.6753 208.192 16.5956C208.287 16.4202 208.61 15.5115 208.831 14.7862C208.926 14.4753 209.036 14.1644 209.076 14.0927C209.115 14.013 209.147 13.8934 209.147 13.8297C209.147 13.7659 209.178 13.6463 209.225 13.5666C209.265 13.4949 209.352 13.2717 209.415 13.0724C209.478 12.8731 209.604 12.5144 209.691 12.2753C209.786 12.0362 209.857 11.7731 209.857 11.7014C209.857 11.6217 209.896 11.5579 209.935 11.5579C209.983 11.5579 210.014 11.4941 210.014 11.4144C210.022 11.255 210.354 10.2268 210.432 10.147C210.464 10.1231 210.488 10.0115 210.488 9.91589C210.488 9.81226 210.527 9.70864 210.567 9.68473C210.614 9.66081 210.646 9.57313 210.646 9.50139C210.646 9.37386 210.417 9.36588 207.592 9.38183C204.224 9.40574 204.334 9.3898 204.334 9.89197C204.334 10.0115 204.302 10.1391 204.255 10.163C204.216 10.1869 204.176 10.2985 204.176 10.4021C204.176 10.5057 204.145 10.6731 204.105 10.7768C204.066 10.8804 203.995 11.1195 203.94 11.3188C203.892 11.5181 203.766 11.9565 203.656 12.2912C203.553 12.634 203.466 12.9768 203.466 13.0644C203.466 13.1521 203.435 13.2478 203.387 13.2717C203.348 13.2956 203.308 13.4231 203.308 13.5507C203.308 13.6782 203.277 13.7978 203.237 13.8217C203.198 13.8456 203.143 14.005 203.119 14.1644C202.993 14.8898 202.969 14.9855 202.906 15.0333C202.867 15.0572 202.835 15.1449 202.835 15.2326C202.835 15.3202 202.764 15.6152 202.685 15.8862C202.598 16.1572 202.472 16.5956 202.401 16.8586C202.33 17.1217 202.235 17.4007 202.196 17.4724C202.157 17.5521 202.125 17.7195 202.125 17.847C202.125 17.9826 202.093 18.1101 202.046 18.134C202.007 18.1579 201.967 18.2855 201.967 18.413C201.967 18.5405 201.936 18.6681 201.888 18.692C201.849 18.7159 201.809 18.8434 201.809 18.971C201.809 19.0985 201.778 19.226 201.731 19.2499C201.691 19.2739 201.652 19.3775 201.652 19.4652C201.652 19.6326 201.549 20.0072 201.399 20.4057C201.352 20.5173 201.305 20.6927 201.289 20.8043C201.249 21.0195 201.123 21.4499 201.013 21.7449C200.973 21.8485 200.942 22.0159 200.942 22.1195C200.942 22.2231 200.91 22.3268 200.871 22.3507C200.831 22.3746 200.776 22.526 200.752 22.6775C200.729 22.8289 200.681 23.084 200.658 23.2355C200.634 23.3869 200.579 23.5383 200.539 23.5623C200.5 23.5862 200.468 23.6978 200.46 23.8173C200.452 24.0485 200.232 24.4869 200.113 24.5028C200.042 24.5108 199.94 24.192 199.861 23.6898C199.837 23.5463 199.79 23.4108 199.75 23.3869C199.711 23.363 199.679 23.2434 199.679 23.1159C199.679 22.9883 199.648 22.8608 199.6 22.8369C199.561 22.813 199.522 22.7173 199.522 22.6297C199.522 22.542 199.435 22.1753 199.324 21.8166C199.214 21.4579 199.08 21.0195 199.04 20.8441C198.993 20.6688 198.922 20.4615 198.882 20.3898C198.843 20.3101 198.811 20.1586 198.811 20.055C198.811 19.9434 198.78 19.8398 198.74 19.8159C198.677 19.7681 198.654 19.6724 198.527 18.947C198.504 18.7876 198.449 18.6282 198.409 18.6043C198.37 18.5804 198.338 18.4927 198.338 18.405C198.338 18.3094 198.251 17.9666 198.141 17.6318C197.802 16.5956 197.786 16.5318 197.786 16.3565C197.786 16.2688 197.754 16.1652 197.707 16.1412C197.668 16.1173 197.628 15.9898 197.628 15.8623C197.628 15.7347 197.597 15.6072 197.549 15.5833C197.51 15.5594 197.47 15.4318 197.47 15.3043C197.47 15.1768 197.439 15.0572 197.399 15.0333C197.36 15.0094 197.313 14.8739 197.289 14.7304C197.265 14.5869 197.21 14.3398 197.163 14.1883C196.997 13.6224 196.823 13.0246 196.752 12.7536C196.705 12.6021 196.634 12.347 196.595 12.1956C196.547 12.0441 196.492 11.797 196.468 11.6536C196.445 11.5101 196.397 11.3746 196.358 11.3507C196.318 11.3268 196.287 11.2072 196.287 11.0797C196.287 10.9521 196.255 10.8246 196.208 10.8007C196.169 10.7768 196.129 10.6492 196.129 10.5217C196.129 10.3941 196.098 10.2666 196.05 10.2427C196.011 10.2188 195.971 10.0992 195.971 9.97965C195.971 9.86009 195.908 9.67676 195.829 9.56516L195.695 9.36588H192.674C191.009 9.36588 189.628 9.39777 189.605 9.42965Z" fill="white"/>
<path d="M217.312 9.68463C217.249 9.86796 217.194 10.0672 217.194 10.139C217.194 10.2107 217.162 10.2984 217.115 10.3223C217.075 10.3462 217.036 10.4738 217.036 10.6013C217.036 10.7288 217.004 10.8564 216.957 10.8803C216.918 10.9042 216.878 11.0158 216.878 11.1194C216.878 11.223 216.847 11.3346 216.799 11.3585C216.76 11.3825 216.72 11.51 216.72 11.6375C216.72 11.7651 216.689 11.8926 216.641 11.9165C216.602 11.9404 216.563 12.052 216.563 12.1556C216.563 12.2593 216.531 12.3629 216.492 12.3868C216.452 12.4107 216.405 12.5303 216.381 12.6498C216.342 12.889 216.034 13.8216 215.924 14.0448C215.884 14.1245 215.853 14.2759 215.853 14.3796C215.853 14.4912 215.821 14.6027 215.774 14.6267C215.734 14.6506 215.695 14.7781 215.695 14.9136C215.695 15.0412 215.663 15.1448 215.616 15.1448C215.576 15.1448 215.537 15.2484 215.537 15.3759C215.537 15.5114 215.505 15.639 215.458 15.6629C215.419 15.6868 215.379 15.7825 215.379 15.8701C215.379 15.9498 215.348 16.0854 215.308 16.1651C215.269 16.2368 215.174 16.5158 215.095 16.7788C215.016 17.0419 214.922 17.289 214.89 17.3368C214.858 17.3767 214.827 17.5042 214.827 17.6238C214.827 17.7433 214.795 17.8709 214.748 17.8948C214.709 17.9187 214.669 18.0303 214.669 18.1339C214.669 18.2375 214.638 18.3491 214.59 18.373C214.551 18.3969 214.511 18.5245 214.511 18.652C214.511 18.7796 214.48 18.9071 214.432 18.931C214.393 18.9549 214.354 19.0506 214.354 19.1383C214.354 19.218 214.322 19.3535 214.283 19.4332C214.243 19.5049 214.117 19.8875 213.991 20.2861C213.872 20.6767 213.738 21.0354 213.707 21.0832C213.675 21.123 213.644 21.2506 213.644 21.3701C213.644 21.4897 213.612 21.6172 213.565 21.6412C213.525 21.6651 213.486 21.7767 213.486 21.8803C213.486 21.9839 213.454 22.0955 213.407 22.1194C213.367 22.1433 213.328 22.2709 213.328 22.3984C213.328 22.5259 213.296 22.6535 213.249 22.6774C213.21 22.7013 213.17 22.7969 213.17 22.8846C213.17 22.9643 213.139 23.0998 213.099 23.1796C213.06 23.2513 212.894 23.7455 212.736 24.2716C212.571 24.7977 212.413 25.2919 212.373 25.3636C212.334 25.4433 212.302 25.5948 212.302 25.6984C212.302 25.81 212.271 25.9216 212.223 25.9455C212.184 25.9694 212.145 26.0651 212.145 26.1527C212.145 26.2325 212.113 26.368 212.074 26.4477C212.034 26.5194 211.868 27.0136 211.711 27.5397C211.553 28.0658 211.387 28.56 211.348 28.6317C211.308 28.7114 211.277 28.8469 211.277 28.9267C211.277 29.0143 211.245 29.11 211.198 29.1339C211.158 29.1578 211.119 29.2854 211.119 29.4129C211.119 29.5404 211.087 29.668 211.04 29.6919C211.001 29.7158 210.961 29.8114 210.961 29.8991C210.961 29.9788 210.93 30.1143 210.89 30.1941C210.851 30.2658 210.732 30.6085 210.622 30.9513C210.472 31.3977 210.448 31.581 210.511 31.6129C210.567 31.6288 211.916 31.6368 213.517 31.6288L216.428 31.6049L216.547 31.2462C216.61 31.0469 216.689 30.8238 216.728 30.752C216.768 30.6723 216.799 30.5209 216.799 30.4172C216.799 30.3056 216.839 30.1941 216.878 30.1701C216.925 30.1462 216.957 30.0187 216.957 29.8912C216.957 29.7636 216.996 29.6361 217.036 29.6122C217.083 29.5883 217.115 29.4607 217.115 29.3332C217.115 29.2056 217.154 29.0781 217.194 29.0542C217.241 29.0303 217.273 28.9027 217.273 28.7832C217.273 28.6636 217.304 28.5361 217.336 28.4883C217.375 28.4484 217.47 28.1854 217.549 27.8984C217.628 27.6114 217.73 27.3325 217.77 27.2767C217.825 27.2049 218.511 27.181 220.712 27.181C223.205 27.181 223.592 27.1969 223.695 27.3085C223.766 27.3723 223.821 27.4998 223.821 27.5875C223.821 27.6752 223.852 27.8027 223.892 27.8825C223.963 28.018 224.428 29.4767 224.602 30.1303C224.657 30.3296 224.736 30.5527 224.775 30.6245C224.815 30.7042 224.846 30.8397 224.846 30.9274C224.846 31.0151 224.878 31.1506 224.917 31.2303C224.957 31.302 225.012 31.4296 225.036 31.5013C225.075 31.6368 225.288 31.6448 228.042 31.6448H231V31.4455C231 31.3339 230.969 31.2462 230.921 31.2462C230.882 31.2462 230.842 31.1426 230.842 31.0151C230.842 30.8796 230.811 30.752 230.763 30.7281C230.724 30.7042 230.684 30.5767 230.684 30.4412C230.684 30.3136 230.653 30.21 230.606 30.21C230.566 30.21 230.527 30.1064 230.527 29.9788C230.527 29.8433 230.495 29.7158 230.448 29.6919C230.408 29.668 230.369 29.5564 230.369 29.4607C230.369 29.3571 230.314 29.1658 230.251 29.0462C230.187 28.9187 230.132 28.7513 230.132 28.6796C230.132 28.6078 230.101 28.5201 230.053 28.4962C230.014 28.4723 229.974 28.3607 229.974 28.2571C229.974 28.1535 229.943 28.0419 229.896 28.018C229.856 27.9941 229.817 27.8665 229.817 27.739C229.817 27.6114 229.785 27.4839 229.738 27.46C229.698 27.4361 229.659 27.3245 229.659 27.2209C229.659 27.1172 229.627 27.0056 229.58 26.9817C229.541 26.9578 229.501 26.8462 229.501 26.7346C229.501 26.631 229.47 26.4796 229.43 26.3998C229.391 26.3281 229.225 25.8339 229.067 25.3078C228.909 24.7817 228.744 24.2875 228.704 24.2158C228.665 24.1361 228.633 24.0006 228.633 23.9209C228.633 23.8332 228.602 23.7375 228.554 23.7136C228.515 23.6897 228.475 23.5781 228.475 23.4665C228.475 23.3629 228.444 23.2114 228.404 23.1317C228.365 23.06 228.207 22.5658 228.042 22.0397C227.884 21.5136 227.718 21.0194 227.679 20.9477C227.639 20.868 227.608 20.7325 227.608 20.6527C227.608 20.5651 227.576 20.4694 227.529 20.4455C227.489 20.4216 227.45 20.2941 227.45 20.1665C227.45 20.039 227.418 19.9114 227.371 19.8875C227.332 19.8636 227.292 19.752 227.292 19.6484C227.292 19.5448 227.261 19.4332 227.213 19.4093C227.174 19.3854 227.134 19.2738 227.134 19.1622C227.134 19.0585 227.103 18.9071 227.055 18.8274C227.016 18.7556 226.819 18.1498 226.621 17.4962C226.416 16.8346 226.219 16.2368 226.18 16.1651C226.14 16.0854 226.109 15.9498 226.109 15.8622C226.109 15.7745 226.077 15.639 226.038 15.5593C225.998 15.4875 225.801 14.8817 225.596 14.2281C225.391 13.5665 225.194 12.9607 225.162 12.873C225.13 12.7854 225.059 12.5542 225.004 12.3549C224.799 11.6216 224.199 9.75637 224.113 9.58101L224.018 9.39767L220.728 9.38173L217.438 9.36579L217.312 9.68463ZM220.981 15.7984C220.981 15.9897 221.138 16.6672 221.225 16.8346C221.265 16.9143 221.296 17.0817 221.296 17.2093C221.296 17.3448 221.328 17.4643 221.367 17.4883C221.407 17.5122 221.454 17.6716 221.478 17.831C221.564 18.4049 221.62 18.6919 221.691 18.8513C221.73 18.939 221.777 19.1143 221.801 19.2498C221.825 19.3774 221.935 19.8317 222.046 20.2462C222.33 21.2506 222.409 21.5854 222.456 21.9441C222.48 22.1035 222.527 22.2629 222.566 22.2868C222.606 22.3107 222.637 22.4383 222.637 22.5658C222.637 22.7013 222.677 22.8846 222.724 22.9723C222.779 23.068 222.779 23.1636 222.74 23.2035C222.7 23.2433 221.785 23.2832 220.704 23.2832C218.598 23.2832 218.559 23.2752 218.708 22.8846C218.748 22.773 218.803 22.5897 218.819 22.4781C218.858 22.2868 218.906 22.1035 219.087 21.4977C219.134 21.3542 219.166 21.1549 219.166 21.0593C219.166 20.9716 219.198 20.8759 219.237 20.852C219.276 20.8281 219.324 20.6687 219.347 20.5093C219.387 20.2143 219.474 19.8397 219.632 19.2897C219.671 19.1383 219.781 18.7078 219.876 18.3332C219.971 17.9585 220.073 17.5839 220.113 17.4962C220.152 17.4085 220.2 17.2252 220.231 17.0977C220.255 16.9622 220.31 16.7151 220.357 16.5397C220.405 16.3643 220.46 16.1093 220.484 15.9817C220.507 15.8462 220.586 15.6549 220.649 15.5513C220.768 15.3759 220.775 15.3759 220.878 15.5114C220.933 15.5912 220.981 15.7187 220.981 15.7984Z" fill="white"/>
</g>
<defs>
<linearGradient id="paint0_linear_354_140" x1="21.6171" y1="43.9854" x2="21.6171" y2="-0.00255966" gradientUnits="userSpaceOnUse">
<stop stop-color="#2733C4"/>
<stop offset="1" stop-color="#3840F7"/>
</linearGradient>
<clipPath id="clip0_354_140">
<rect width="231" height="44" fill="white"/>
</clipPath>
</defs>
</svg>
