<svg width="151" height="31" viewBox="0 0 151 31" fill="none" xmlns="http://www.w3.org/2000/svg">
<path d="M77.6521 15.1737C76.4135 15.1737 75.5207 15.5795 74.6154 15.993V25.3488C75.4825 25.4313 75.9796 25.4313 76.8023 25.4313C79.7751 25.4313 80.1827 24.0709 80.1827 22.1714V17.7031C80.1827 16.3003 79.7168 15.1737 77.6521 15.1737ZM57.9087 14.6631C55.846 14.6631 55.3753 15.7946 55.3753 17.1959V17.9833H60.4393V17.1959C60.4393 15.7946 59.9686 14.6631 57.9087 14.6631ZM19.6618 24.4011C19.6618 25.5097 20.1853 26.0855 21.3406 26.0855C22.5798 26.0855 23.3136 25.6818 24.2183 25.2669V23.0476H21.5086C20.2256 23.0476 19.6618 23.2863 19.6618 24.4011ZM96.8574 15.1737C94.7913 15.1737 94.0755 16.3003 94.0755 17.7031V22.8222C94.0755 24.2284 94.7913 25.3585 96.8574 25.3585C98.918 25.3585 99.6393 24.2284 99.6393 22.8222V17.7031C99.6386 16.3003 98.9173 15.1737 96.8574 15.1737ZM9.53672 30.1411H3.46333V15.4519H0.428711V10.3903H3.46402V7.35037C3.46402 3.22053 5.17676 0.765381 10.0449 0.765381H14.098V5.8283H11.5647C9.66933 5.8283 9.54436 6.53592 9.54436 7.85611L9.53672 10.3896H14.1258L13.5891 15.4512H9.53672V30.1411ZM30.293 30.1793H25.2312L25.0125 28.9C22.7013 30.1793 20.6387 30.3867 19.2779 30.3867C15.5657 30.3867 13.5898 27.9087 13.5898 24.4816C13.5898 20.4385 15.8955 18.9955 20.0201 18.9955H24.2183V18.1214C24.2183 16.0575 23.9815 15.4519 20.8053 15.4519H15.6122L16.1197 10.3903H21.796C28.765 10.3903 30.293 12.5902 30.293 18.1623V30.1793ZM47.5059 15.823C44.356 15.2833 43.4514 15.1647 41.9358 15.1647C39.2136 15.1647 38.3909 15.7648 38.3909 18.0749V22.4448C38.3909 24.7549 39.2136 25.3578 41.9358 25.3578C43.4514 25.3578 44.356 25.2371 47.5059 24.6953V29.6326C44.7469 30.2508 42.9494 30.4131 41.4304 30.4131C34.9099 30.4131 32.3182 26.9867 32.3182 22.0369V18.4912C32.3182 13.5372 34.9099 10.1045 41.4304 10.1045C42.9494 10.1045 44.7469 10.2675 47.5059 10.8884V15.823ZM66.512 22.0369H55.3746V22.4448C55.3746 24.7549 56.198 25.3578 58.9195 25.3578C61.3661 25.3578 62.8595 25.2371 66.0038 24.6953V29.6326C62.9712 30.2508 61.3911 30.4131 58.4162 30.4131C51.895 30.4131 49.3019 26.9867 49.3019 22.0369V17.9826C49.3019 13.6516 51.2257 10.1045 57.908 10.1045C64.5902 10.1045 66.512 13.6107 66.512 17.9826V22.0369ZM86.2547 22.1305C86.2547 26.9146 84.8863 30.4041 76.5968 30.4041C73.6031 30.4041 71.8474 30.1411 68.5434 29.6333V2.28606L74.6147 1.27389V10.8399C75.9268 10.3529 77.625 10.1052 79.1704 10.1052C85.2424 10.1052 86.254 12.8254 86.254 17.1966V22.1305H86.2547ZM105.717 22.2346C105.717 26.3616 104.012 30.3645 96.8776 30.3645C89.7399 30.3645 88.0028 26.3616 88.0028 22.2346V18.2497C88.0028 14.1206 89.7399 10.117 96.8776 10.117C104.012 10.117 105.717 14.1206 105.717 18.2497V22.2346ZM125.166 22.2346C125.166 26.3616 123.459 30.3645 116.326 30.3645C109.188 30.3645 107.451 26.3616 107.451 22.2346V18.2497C107.451 14.1206 109.188 10.117 116.326 10.117C123.459 10.117 125.166 14.1206 125.166 18.2497V22.2346ZM145.125 30.1411H138.544L132.978 20.8568V30.1411H126.905V2.28537L132.978 1.2732V19.2057L138.544 10.3903H145.125L139.049 20.0104L145.125 30.1411ZM116.305 15.1737C114.242 15.1737 113.527 16.3003 113.527 17.7031V22.8222C113.527 24.2284 114.242 25.3585 116.305 25.3585C118.365 25.3585 119.094 24.2284 119.094 22.8222V17.7031C119.094 16.3003 118.365 15.1737 116.305 15.1737ZM148.592 26.6766C149.614 26.6766 150.429 27.5098 150.429 28.5504C150.429 29.607 149.614 30.4311 148.584 30.4311C147.559 30.4311 146.728 29.607 146.728 28.5504C146.728 27.5098 147.559 26.6766 148.584 26.6766H148.592ZM148.584 26.968C147.76 26.968 147.086 27.6763 147.086 28.5504C147.086 29.4405 147.761 30.1398 148.592 30.1398C149.423 30.1481 150.088 29.4405 150.088 28.5587C150.088 27.677 149.423 26.968 148.592 26.968H148.584ZM148.235 29.641H147.902V27.55C148.077 27.5257 148.243 27.5015 148.493 27.5015C148.81 27.5015 149.017 27.5681 149.144 27.6589C149.267 27.7512 149.332 27.892 149.332 28.0911C149.332 28.3673 149.151 28.5331 148.926 28.6003V28.6163C149.109 28.6503 149.233 28.8154 149.276 29.1227C149.324 29.4481 149.375 29.5723 149.407 29.6403H149.058C149.009 29.5723 148.958 29.3815 148.917 29.1061C148.868 28.8404 148.733 28.7405 148.467 28.7405H148.236V29.641H148.235ZM148.235 28.4838H148.476C148.75 28.4838 148.983 28.3832 148.983 28.1244C148.983 27.9413 148.851 27.7588 148.476 27.7588C148.367 27.7588 148.292 27.7672 148.235 27.7748V28.4838Z" fill="#A2BDAA"/>
</svg>
