<svg width="105" height="33" viewBox="0 0 105 33" fill="none" xmlns="http://www.w3.org/2000/svg">
<path fill-rule="evenodd" clip-rule="evenodd" d="M12.8612 0.459473H13.7898C17.0139 0.525923 20.1851 1.75368 22.4629 3.92717C21.6219 4.7402 20.7635 5.52 19.9399 6.33284C18.6609 5.23798 17.1189 4.39173 15.4368 4.09309C12.9489 3.59531 10.268 4.04326 8.183 5.3873C5.90522 6.7974 4.36323 9.18665 4.03031 11.7416C3.66252 14.2636 4.41586 16.9183 6.15041 18.876C7.815 20.7841 10.3557 21.9786 12.9838 22.0617C15.4368 22.1944 17.9951 21.4808 19.7823 19.8549C21.1839 18.7101 21.8322 16.9681 22.0425 15.2758C19.134 15.2758 16.2254 15.2922 13.3167 15.2758V11.8579H25.5642C26.195 15.5246 25.2839 19.6558 22.3403 22.2772C20.3779 24.1355 17.6622 25.2305 14.8938 25.4463C12.2129 25.6951 9.4445 25.2139 7.06165 23.9861C4.20554 22.5428 1.92776 20.1037 0.806408 17.2335C-0.244766 14.5955 -0.262311 11.6089 0.718896 8.95427C1.61238 6.53199 3.3296 4.39173 5.53721 2.89856C7.65731 1.42182 10.2329 0.608789 12.8612 0.459473Z" fill="#A2BDAA"/>
<path fill-rule="evenodd" clip-rule="evenodd" d="M83.1226 1.32227H86.8722V25.0149C85.628 25.0149 84.3665 25.0313 83.1226 24.9983C83.1399 17.1173 83.1226 9.2198 83.1226 1.32227Z" fill="#A2BDAA"/>
<path fill-rule="evenodd" clip-rule="evenodd" d="M33.9047 9.53519C36.2176 9.12027 38.7233 9.58483 40.6331 10.8956C42.3676 12.057 43.5767 13.8822 43.9447 15.8731C44.4177 18.1793 43.8219 20.7011 42.245 22.5263C40.5455 24.5669 37.7596 25.6619 35.0436 25.496C32.5555 25.3633 30.1376 24.1854 28.6658 22.2607C27.0014 20.137 26.5983 17.217 27.5094 14.7282C28.4206 12.057 30.9962 10.0164 33.9047 9.53519ZM34.4304 12.6874C33.4843 12.9198 32.6082 13.434 31.9774 14.1642C30.2777 16.0887 30.383 19.2245 32.2577 21.0163C33.3266 22.0451 34.9386 22.5263 36.4279 22.2441C37.812 22.0119 39.0211 21.1326 39.6869 19.9711C40.8434 17.9968 40.5105 15.2759 38.7408 13.7329C37.6019 12.7373 35.9373 12.3226 34.4304 12.6874Z" fill="#A2BDAA"/>
<path fill-rule="evenodd" clip-rule="evenodd" d="M52.4774 9.53514C55.1231 9.05397 58.0141 9.75071 59.9941 11.5095C63.2182 14.247 63.5685 19.3738 60.8176 22.5262C59.153 24.5172 56.4548 25.6122 53.7915 25.4959C51.2509 25.4297 48.7453 24.2352 47.2384 22.2606C45.5389 20.0871 45.1709 17.1008 46.1346 14.5622C47.0983 11.974 49.6215 9.9997 52.4774 9.53514ZM53.003 12.6874C52.0569 12.9198 51.1808 13.434 50.55 14.1475C48.8681 16.039 48.9381 19.125 50.7428 20.9334C51.8115 22.0118 53.4761 22.5428 55.0181 22.244C56.3846 21.9952 57.6113 21.1326 58.2771 19.971C59.416 17.9801 59.0831 15.2592 57.2959 13.7162C56.157 12.7206 54.4924 12.3225 53.003 12.6874Z" fill="#A2BDAA"/>
<path fill-rule="evenodd" clip-rule="evenodd" d="M68.2292 10.4971C70.2442 9.30262 72.9249 8.97076 75.0976 9.99956C75.781 10.2816 76.3416 10.7628 76.8848 11.2439L76.9023 9.86685L80.4416 9.88327V24.517C80.4241 26.7236 79.8284 29.063 78.1463 30.6724C76.3065 32.4476 73.4857 32.9952 70.9449 32.6301C68.2292 32.2486 65.8637 30.3738 64.8125 28.0011C65.8637 27.52 66.9677 27.1385 68.0539 26.6905C68.6671 28.051 69.9113 29.2123 71.4706 29.4779C73.0299 29.7433 74.8347 29.3782 75.8509 28.1505C76.9372 26.8895 76.9372 25.1641 76.8848 23.6211C76.0788 24.3677 75.15 25.0312 74.0287 25.2802C71.5932 25.9273 68.9125 25.1309 67.0376 23.5713C65.1454 22.0117 64.024 19.606 64.1291 17.2168C64.1817 14.5123 65.7937 11.9074 68.2292 10.4971ZM71.8562 12.621C70.7872 12.7869 69.7885 13.351 69.1051 14.1308C67.4583 15.989 67.4583 18.9589 69.1226 20.7839C70.069 21.8624 71.5932 22.4596 73.065 22.3103C74.4493 22.1776 75.7283 21.348 76.4117 20.2033C77.5682 18.262 77.3754 15.6239 75.8159 13.9316C74.8522 12.8864 73.3104 12.372 71.8562 12.621Z" fill="#A2BDAA"/>
<path fill-rule="evenodd" clip-rule="evenodd" d="M91.3751 11.3435C93.4777 9.48522 96.7191 8.85473 99.4175 9.83369C101.976 10.7462 103.605 13.0524 104.429 15.425C100.626 16.9182 96.8417 18.3947 93.0397 19.8881C93.5654 20.8338 94.3714 21.6965 95.4576 22.045C96.9821 22.5592 98.8041 22.3768 100.083 21.4145C100.592 21.0494 100.994 20.5682 101.38 20.1037L104.271 21.9287C102.904 23.87 100.609 25.2305 98.1385 25.4462C95.405 25.7615 92.4965 24.7659 90.7268 22.7417C87.8183 19.5562 88.0986 14.2137 91.3751 11.3435ZM93.25 14.4129C92.6541 15.2259 92.409 16.2213 92.4265 17.2002C94.967 16.2048 97.5076 15.2093 100.048 14.1973C99.6277 13.2682 98.6116 12.7039 97.5777 12.5546C95.9131 12.2726 94.1786 13.1186 93.25 14.4129Z" fill="#A2BDAA"/>
</svg>
