<svg width="106" height="33" viewBox="0 0 106 33" fill="none" xmlns="http://www.w3.org/2000/svg">
<g clip-path="url(#clip0_107_615)">
<path d="M0 23.2715V0.981938H3.91524V23.2714H0V23.2715V23.2715ZM13.938 7.10122C8.9178 7.10122 5.44395 10.961 5.44395 15.379C5.44395 20.3095 9.22328 23.7064 13.977 23.7064C18.4886 23.7064 22.4037 20.3723 22.4037 15.3683C22.4037 11.1606 19.1594 7.10129 13.938 7.10129V7.10122ZM13.8918 10.8785C16.5191 10.8785 18.4527 12.9233 18.4527 15.3931C18.4527 18.0119 16.3206 19.922 13.9626 19.922C11.1766 19.922 9.42308 17.7138 9.42308 15.4002C9.42315 12.8643 11.4028 10.8784 13.8918 10.8784V10.8785ZM32.2411 7.10122C27.2211 7.10122 23.7471 10.961 23.7471 15.379C23.7471 20.3095 27.5264 23.7064 32.2801 23.7064C36.7917 23.7064 40.7068 20.3723 40.7068 15.3683C40.7068 12.4217 39.4307 11.1143 39.4307 11.1143L40.516 10.7421V7.56443H34.955C34.955 7.56443 33.7493 7.10122 32.2411 7.10122ZM32.195 10.8785C34.8221 10.8785 36.7559 12.9233 36.7559 15.3931C36.7559 18.0119 34.6238 19.922 32.2659 19.922C29.4798 19.922 27.7263 17.7138 27.7263 15.4002C27.7264 12.8643 29.7061 10.8784 32.195 10.8784V10.8785ZM36.7282 24.3611C36.7282 26.9797 34.5963 28.9042 32.2383 28.9042C29.4521 28.9042 27.6916 26.6745 27.6916 24.3611H23.7195C23.7195 29.2917 27.4986 32.6883 32.2525 32.6883C36.764 32.6883 40.6791 29.3647 40.6791 24.3611H36.7282ZM42.275 23.2715V7.56443H46.1905V23.2715H42.275ZM49.9924 23.2715V11.0827H47.8928V7.56443H49.9924V2.74108H53.9078V7.56443H56.0641V11.0827H53.9078V23.2715H49.9924ZM46.8174 3.10335C46.8174 4.53527 45.6565 5.69613 44.2247 5.69613C42.7925 5.69613 41.6318 4.5352 41.6318 3.10335C41.6318 1.67136 42.7927 0.510498 44.2247 0.510498C45.6566 0.510498 46.8174 1.67136 46.8174 3.10335ZM64.8668 7.09063C59.8228 7.09063 56.5713 10.9523 56.5713 15.5208C56.5713 20.2419 59.8338 23.717 64.9484 23.717C69.7194 23.717 72.0663 20.7377 72.0663 20.7377L69.449 18.1168C69.449 18.1168 67.4727 20.2484 64.998 20.2484C62.935 20.2484 61.2856 19.0969 60.7101 16.9855H72.9103V15.9074C72.9105 11.6054 70.4204 7.09063 64.8668 7.09063ZM64.7427 10.5379C66.5463 10.5379 68.391 11.5029 68.8035 13.8078H60.6038C60.9284 12.1876 62.346 10.5379 64.7427 10.5379ZM82.7039 23.7191C77.6459 23.7191 74.1993 19.8665 74.1993 15.3243C74.1993 10.6367 78.0945 7.0877 82.6877 7.0877C87.128 7.0877 89.401 10.2222 89.401 10.2222L86.6695 12.9413C86.6695 12.9413 85.0873 10.897 82.669 10.897C79.989 10.897 78.1564 12.9473 78.1564 15.3844C78.1564 17.9577 80.1057 19.9321 82.6389 19.9321C85.0961 19.9321 86.6657 17.8912 86.6657 17.8912L89.4244 20.6087C89.4244 20.6087 87.1736 23.7192 82.7041 23.7192H82.7039V23.719V23.7191ZM90.849 23.2829V0.92528H94.7643V9.13957C94.7643 9.13957 96.2635 7.0877 99.5248 7.0877C103.625 7.0877 106 10.1354 106 14.0334V23.2828H102.084V14.6252C102.084 12.0064 100.454 10.9199 98.648 10.9199C96.5901 10.9199 94.7644 12.091 94.7644 14.8277V23.2829H90.849Z" fill="#A2BDAA"/>
</g>
<defs>
<clipPath id="clip0_107_615">
<rect width="106" height="32.1816" fill="white" transform="translate(0 0.507568)"/>
</clipPath>
</defs>
</svg>
