<svg width="123" height="32" viewBox="0 0 123 32" fill="none" xmlns="http://www.w3.org/2000/svg">
<g clip-path="url(#clip0_107_597)">
<path fill-rule="evenodd" clip-rule="evenodd" d="M39.3501 24.5432L40.8851 20.9762C42.5432 22.2161 44.7523 22.8606 46.9318 22.8606C48.5407 22.8606 49.5591 22.2407 49.5591 21.301C49.5345 18.6737 39.9208 20.7302 39.847 14.1424C39.8224 10.7968 42.7941 8.21867 47.0056 8.21867C49.5099 8.21867 52.0093 8.83859 53.7952 10.2506L52.3586 13.8914C50.7251 12.8484 48.6932 12.1055 46.7596 12.1055C45.446 12.1055 44.5801 12.7254 44.5801 13.5175C44.6047 16.0956 54.2921 14.6836 54.3905 20.9762C54.3905 24.3956 51.4927 26.8015 47.3303 26.8015C44.2799 26.7966 41.4805 26.0783 39.3501 24.5432ZM98.2966 19.6872C97.5291 21.0254 96.0925 21.9406 94.4295 21.9406C91.9744 21.9406 89.9966 19.9578 89.9966 17.5076C89.9966 15.0575 91.9793 13.0747 94.4295 13.0747C96.0875 13.0747 97.5291 13.9898 98.2966 15.3281L102.533 12.9763C100.948 10.1522 97.8981 8.21867 94.4295 8.21867C89.2979 8.21867 85.1356 12.381 85.1356 17.5126C85.1356 22.6441 89.2979 26.8064 94.4295 26.8064C97.9227 26.8064 100.948 24.8975 102.533 22.0488L98.2966 19.6872ZM56.5209 0.509033H61.8247V26.4522H56.5209V0.509033ZM104.614 0.509033V26.4522H109.918V18.6688L116.21 26.4522H123L114.995 17.2075L122.405 8.58275H115.91L109.913 15.7414V0.509033H104.614Z" fill="#A2BDAA"/>
<path d="M77.5835 19.7358C76.816 21.0002 75.2318 21.9399 73.4458 21.9399C70.9907 21.9399 69.0129 19.9572 69.0129 17.507C69.0129 15.0569 70.9957 13.0741 73.4458 13.0741C75.2318 13.0741 76.816 14.063 77.5835 15.3521V19.7358ZM77.5835 8.58706V10.6928C76.7176 9.23158 74.5627 8.21313 72.3044 8.21313C67.6451 8.21313 63.9797 12.3263 63.9797 17.4824C63.9797 22.6386 67.6451 26.8009 72.3044 26.8009C74.5577 26.8009 76.7127 25.7874 77.5835 24.3212V26.427H82.8873V8.58706H77.5835Z" fill="#A2BDAA"/>
<path fill-rule="evenodd" clip-rule="evenodd" d="M6.56814 19.7115C6.56814 21.5221 5.1069 22.9833 3.29634 22.9833C1.48578 22.9833 0.0245361 21.5171 0.0245361 19.7115C0.0245361 17.9059 1.48578 16.4397 3.29634 16.4397H6.56814V19.7115ZM8.20158 19.7115C8.20158 17.9009 9.66282 16.4397 11.4734 16.4397C13.2839 16.4397 14.7452 17.9009 14.7452 19.7115V27.8886C14.7452 29.6991 13.2839 31.1604 11.4734 31.1604C9.66282 31.1604 8.20158 29.6991 8.20158 27.8886V19.7115Z" fill="#A2BDAA"/>
<path fill-rule="evenodd" clip-rule="evenodd" d="M11.4734 6.57998C9.66288 6.57998 8.20164 5.11874 8.20164 3.30818C8.20164 1.49762 9.66288 0.036377 11.4734 0.036377C13.284 0.036377 14.7452 1.49762 14.7452 3.30818V6.57998H11.4734ZM11.4734 8.23802C13.284 8.23802 14.7452 9.69925 14.7452 11.5098C14.7452 13.3204 13.284 14.7816 11.4734 14.7816H3.2718C1.46124 14.7816 0 13.3155 0 11.5098C0 9.70417 1.46124 8.23802 3.2718 8.23802H11.4734Z" fill="#A2BDAA"/>
<path fill-rule="evenodd" clip-rule="evenodd" d="M24.5804 11.5098C24.5804 9.69925 26.0416 8.23802 27.8522 8.23802C29.6627 8.23802 31.124 9.69925 31.124 11.5098C31.124 13.3204 29.6627 14.7816 27.8522 14.7816H24.5804V11.5098ZM22.9469 11.5098C22.9469 13.3204 21.4857 14.7816 19.6751 14.7816C17.8646 14.7816 16.4033 13.3204 16.4033 11.5098V3.30818C16.4033 1.49762 17.8646 0.036377 19.6751 0.036377C21.4857 0.036377 22.9469 1.49762 22.9469 3.30818V11.5098Z" fill="#A2BDAA"/>
<path fill-rule="evenodd" clip-rule="evenodd" d="M19.6751 24.6167C21.4857 24.6167 22.9469 26.078 22.9469 27.8886C22.9469 29.6991 21.4857 31.1604 19.6751 31.1604C17.8646 31.1604 16.4033 29.6991 16.4033 27.8886V24.6167H19.6751ZM19.6751 22.9833C17.8646 22.9833 16.4033 21.5221 16.4033 19.7115C16.4033 17.9009 17.8646 16.4397 19.6751 16.4397H27.8767C29.6873 16.4397 31.1485 17.9009 31.1485 19.7115C31.1485 21.5221 29.6873 22.9833 27.8767 22.9833H19.6751Z" fill="#A2BDAA"/>
</g>
<defs>
<clipPath id="clip0_107_597">
<rect width="123" height="31.1239" fill="white" transform="translate(0 0.036377)"/>
</clipPath>
</defs>
</svg>
